Coordinates
version=1
nRows=22
nColumns=24
inDegrees=yes

Units are S.I. units (second, meters, Newtons, ...)
Angles are in degrees.

endheader
time	pelvis_tilt	pelvis_list	pelvis_rotation	pelvis_tx	pelvis_ty	pelvis_tz	hip_flexion_r	hip_adduction_r	hip_rotation_r	knee_angle_r	ankle_angle_r	subtalar_angle_r	mtp_angle_r	hip_flexion_l	hip_adduction_l	hip_rotation_l	knee_angle_l	ankle_angle_l	subtalar_angle_l	mtp_angle_l	lumbar_extension	lumbar_bending	lumbar_rotation
      4.70000000	    -16.96304347	      5.88767799	     -1.76604328	     -0.98701831	     -0.01165059	     -0.31874504	     34.43640928	     -5.92487649	     -0.24950183	    -62.73686801	     -4.28157049	    -10.52804218	     18.29334001	     24.20838787	      7.08049030	     -8.81927899	    -17.69120555	      3.51046611	     -0.58557335	      8.32592673	     20.29972078	     -6.68689630	    -10.87713365
      4.70500000	    -16.93748034	      5.54176098	     -1.50663026	     -0.98089344	     -0.01075198	     -0.31924350	     35.03836591	     -5.69017856	     -0.82321918	    -62.07467316	     -3.76801374	    -10.74697804	     18.09052365	     23.42849567	      6.92070879	     -8.46598772	    -17.15031144	      3.62985421	     -0.40449154	      8.27376845	     20.20030845	     -6.46375223	    -11.34232644
      4.71000000	    -16.91628892	      5.20476624	     -1.25027245	     -0.97478335	     -0.00993762	     -0.31971269	     35.62545404	     -5.47433960	     -1.40570442	    -61.33968498	     -3.28846842	    -10.96243142	     17.83868434	     22.65947070	      6.75826513	     -8.11069997	    -16.61333572	      3.74960951	     -0.23728925	      8.20859857	     20.10761105	     -6.25006010	    -11.79972432
      4.71500000	    -16.86001019	      4.90512595	     -0.99142021	     -0.96868539	     -0.00917608	     -0.32015782	     36.16272717	     -5.31062609	     -1.99196090	    -60.55090581	     -2.84748830	    -11.17407196	     17.41646043	     21.84682021	      6.62994650	     -7.72833698	    -16.05821325	      3.85981280	     -0.08622122	      8.08987732	     19.97940905	     -6.07969458	    -12.26139083
      4.72000000	    -16.88693240	      4.56859760	     -0.76202641	     -0.96260246	     -0.00857363	     -0.32057569	     36.76049265	     -5.09654615	     -2.55949605	    -59.66664286	     -2.40959210	    -11.30129277	     17.13912030	     21.15388266	      6.43465637	     -7.42783399	    -15.55267144	      3.99369537	      0.05549318	      8.01195287	     19.94326476	     -5.84874863	    -12.66519869
      4.72500000	    -16.88308708	      4.26067625	     -0.52197966	     -0.95652819	     -0.00802367	     -0.32097028	     37.30787257	     -4.92993974	     -3.14252407	    -58.72186821	     -2.02410718	    -11.44068518	     16.82739786	     20.42243194	      6.26651463	     -7.08945336	    -15.03048402	      4.12409846	      0.19562845	      7.91380602	     19.87460383	     -5.65659274	    -13.08578629
      4.73000000	    -16.87658913	      3.97163966	     -0.29815755	     -0.95046423	     -0.00755342	     -0.32132813	     37.83486407	     -4.78158212	     -3.71137941	    -57.71269129	     -1.65972724	    -11.52601150	     16.50298245	     19.69358754	      6.10319082	     -6.78258915	    -14.51216257	      4.25063120	      0.32310318	      7.79881900	     19.80487012	     -5.47879247	    -13.48604681
      4.73500000	    -16.88045979	      3.69663965	     -0.09257752	     -0.94440517	     -0.00718246	     -0.32166724	     38.35531798	     -4.64314624	     -4.25867531	    -56.64069635	     -1.31767219	    -11.55563619	     16.20129731	     18.97892069	      5.94083991	     -6.50433775	    -13.99375032	      4.38794349	      0.45279914	      7.68524452	     19.74812969	     -5.30202770	    -13.85655695
      4.74000000	    -16.88596384	      3.43568003	      0.10381324	     -0.93833500	     -0.00688757	     -0.32196135	     38.85199410	     -4.51750851	     -4.79488725	    -55.49916767	     -0.99774830	    -11.53424442	     15.92808576	     18.27128175	      5.77985930	     -6.26012429	    -13.48254709	      4.52756007	      0.58457491	      7.57541235	     19.69920901	     -5.14182391	    -14.20894199
      4.74500000	    -16.93432065	      3.21529072	      0.22996465	     -0.93228663	     -0.00676374	     -0.32214994	     39.40214896	     -4.38547479	     -5.24083300	    -54.32291904	     -0.70567074	    -11.43593678	     15.75480486	     17.59838343	      5.62955767	     -6.05050300	    -12.94534355	      4.69412448	      0.72890169	      7.50305895	     19.69875221	     -4.99429101	    -14.46016672
      4.75000000	    -16.89535599	      2.95807368	      0.45902256	     -0.92623187	     -0.00655364	     -0.32249464	     39.78070235	     -4.30933058	     -5.83619796	    -53.03224005	     -0.41948624	    -11.34913570	     15.51775608	     16.86668329	      5.47132303	     -5.85505453	    -12.46672792	      4.82085962	      0.87726793	      7.39429891	     19.59424553	     -4.83864309	    -14.86743904
      4.75500000	    -16.87928329	      2.74487649	      0.61122162	     -0.92016185	     -0.00647991	     -0.32272683	     40.18945516	     -4.22372912	     -6.33311070	    -51.71347739	     -0.17706955	    -11.17217171	     15.31693944	     16.13437876	      5.32856450	     -5.68102149	    -11.94416689	      4.97052629	      1.03898061	      7.29055693	     19.52387534	     -4.70034330	    -15.16142599
      4.76000000	    -16.96556338	      2.56957625	      0.67689973	     -0.91409936	     -0.00664549	     -0.32282694	     40.71058102	     -4.10622854	     -6.71410052	    -50.35456907	      0.06938122	    -10.92700140	     15.23891707	     15.52059581	      5.19517695	     -5.62217486	    -11.43385624	      5.14072838	      1.14571351	      7.23564250	     19.57252497	     -4.57166379	    -15.32649928
      4.76500000	    -16.90388501	      2.33691418	      0.87871151	     -0.90803936	     -0.00664344	     -0.32309581	     40.98565533	     -4.04933160	     -7.29194974	    -48.88235952	      0.28981385	    -10.69332733	     15.14061652	     14.77660130	      5.03349086	     -5.48720547	    -10.97251338	      5.29679874	      1.34563582	      7.15878716	     19.44558880	     -4.43205462	    -15.69562073
      4.77000000	    -16.90948925	      2.15229558	      0.98272512	     -0.90195588	     -0.00683517	     -0.32324582	     41.33798730	     -3.96354021	     -7.73994158	    -47.38253095	      0.48225490	    -10.39921089	     15.10244301	     14.09458907	      4.89475857	     -5.43522521	    -10.49644513	      5.46657565	      1.48875668	      7.08372967	     19.40157941	     -4.30058893	    -15.92213279
      4.77500000	    -17.03221756	      2.02852247	      1.00517545	     -0.89587392	     -0.00726486	     -0.32329639	     41.82806587	     -3.87374046	     -8.07332137	    -45.86941079	      0.61776284	    -10.06115222	     15.08920154	     13.53715689	      4.80065165	     -5.45414857	    -10.01838512	      5.62112013	      1.57089696	      7.03720918	     19.49041188	     -4.19439840	    -15.99989874
      4.78000000	    -16.95091757	      1.80173103	      1.18060333	     -0.88976960	     -0.00749102	     -0.32353274	     41.99158219	     -3.81295322	     -8.65014866	    -44.22957687	      0.78712480	     -9.72775845	     15.14885371	     12.79717325	      4.62734356	     -5.37962318	     -9.60846811	      5.85249758	      1.78470661	      6.97720964	     19.34620167	     -4.04103648	    -16.35923103
      4.78500000	    -16.95809452	      1.63398249	      1.25167972	     -0.88365373	     -0.00790791	     -0.32362094	     42.25478385	     -3.71737804	     -9.07365068	    -42.56429066	      0.90485179	     -9.37040199	     15.23923472	     12.14993885	      4.49113096	     -5.38673687	     -9.20019011	      6.05590765	      1.91492245	      6.89601994	     19.30743839	     -3.90884880	    -16.54019072
      4.79000000	    -17.06214788	      1.50552121	      1.27561854	     -0.87757026	     -0.00851369	     -0.32362259	     42.61622710	     -3.61535782	     -9.41794149	    -40.87415727	      0.98403191	     -8.96728006	     15.28849017	     11.63491899	      4.38564097	     -5.44068156	     -8.84251459	      6.24132397	      1.97356770	      6.83794634	     19.37168648	     -3.80302744	    -16.61618454
      4.79500000	    -17.02229390	      1.31829598	      1.39680119	     -0.87140987	     -0.00900134	     -0.32377364	     42.74887589	     -3.54282797	     -9.93593351	    -39.10879317	      1.04747554	     -8.59298685	     15.44793179	     10.96700211	      4.23482029	     -5.42827265	     -8.49391701	      6.48915940	      2.15858856	      6.74727956	     19.27852791	     -3.65951847	    -16.88118006
      4.80000000	    -17.15760893	      1.21525878	      1.38837028	     -0.86529864	     -0.00979508	     -0.32373364	     43.09137185	     -3.42701070	    -10.21771142	    -37.34641565	      1.08694843	     -8.16290053	     15.49371374	     10.51519934	      4.15069401	     -5.50905201	     -8.20010166	      6.69486773	      2.16542104	      6.68861694	     19.37808675	     -3.55915351	    -16.91783949
      4.80500000	    -17.12273433	      1.02217167	      1.51084704	     -0.85910673	     -0.01040773	     -0.32385762	     43.16167000	     -3.33854050	    -10.75063152	    -35.49744450	      1.11662672	     -7.76391509	     15.67797679	      9.89687593	      3.98610124	     -5.49053709	     -7.94126567	      6.96876269	      2.33982795	      6.58255596	     19.29265342	     -3.40922370	    -17.16627816
